<svg width="66" height="12" viewBox="0 0 66 12" fill="none" xmlns="http://www.w3.org/2000/svg">
<path d="M10.6418 4.13789L7.6664 3.70547L6.33632 1.00898C6.29999 0.935154 6.24023 0.875389 6.1664 0.839061C5.98124 0.747654 5.75624 0.823826 5.66366 1.00898L4.33358 3.70547L1.35819 4.13789C1.27616 4.14961 1.20116 4.18828 1.14374 4.24687C1.07432 4.31822 1.03607 4.41422 1.03739 4.51376C1.0387 4.6133 1.07949 4.70824 1.15077 4.77773L3.30351 6.87656L2.79491 9.84023C2.78299 9.90917 2.79062 9.98008 2.81694 10.0449C2.84325 10.1097 2.88721 10.1659 2.94382 10.207C3.00043 10.2481 3.06743 10.2725 3.13722 10.2775C3.20701 10.2825 3.27679 10.2678 3.33866 10.2352L5.99999 8.83593L8.66132 10.2352C8.73398 10.2738 8.81835 10.2867 8.89921 10.2727C9.10312 10.2375 9.24023 10.0441 9.20507 9.84023L8.69648 6.87656L10.8492 4.77773C10.9078 4.72031 10.9465 4.64531 10.9582 4.56328C10.9898 4.3582 10.8469 4.16836 10.6418 4.13789Z" fill="#FAFF00"/>
<path d="M24.1418 4.13789L21.1664 3.70547L19.8363 1.00898C19.8 0.935154 19.7402 0.875389 19.6664 0.839061C19.4812 0.747654 19.2562 0.823826 19.1637 1.00898L17.8336 3.70547L14.8582 4.13789C14.7762 4.14961 14.7012 4.18828 14.6437 4.24687C14.5743 4.31822 14.5361 4.41422 14.5374 4.51376C14.5387 4.6133 14.5795 4.70824 14.6508 4.77773L16.8035 6.87656L16.2949 9.84023C16.283 9.90917 16.2906 9.98008 16.3169 10.0449C16.3433 10.1097 16.3872 10.1659 16.4438 10.207C16.5004 10.2481 16.5674 10.2725 16.6372 10.2775C16.707 10.2825 16.7768 10.2678 16.8387 10.2352L19.5 8.83593L22.1613 10.2352C22.234 10.2738 22.3184 10.2867 22.3992 10.2727C22.6031 10.2375 22.7402 10.0441 22.7051 9.84023L22.1965 6.87656L24.3492 4.77773C24.4078 4.72031 24.4465 4.64531 24.4582 4.56328C24.4898 4.3582 24.3469 4.16836 24.1418 4.13789Z" fill="#FAFF00"/>
<path d="M37.6418 4.13789L34.6664 3.70547L33.3363 1.00898C33.3 0.935154 33.2402 0.875389 33.1664 0.839061C32.9812 0.747654 32.7562 0.823826 32.6637 1.00898L31.3336 3.70547L28.3582 4.13789C28.2762 4.14961 28.2012 4.18828 28.1437 4.24687C28.0743 4.31822 28.0361 4.41422 28.0374 4.51376C28.0387 4.6133 28.0795 4.70824 28.1508 4.77773L30.3035 6.87656L29.7949 9.84023C29.783 9.90917 29.7906 9.98008 29.8169 10.0449C29.8433 10.1097 29.8872 10.1659 29.9438 10.207C30.0004 10.2481 30.0674 10.2725 30.1372 10.2775C30.207 10.2825 30.2768 10.2678 30.3387 10.2352L33 8.83593L35.6613 10.2352C35.734 10.2738 35.8184 10.2867 35.8992 10.2727C36.1031 10.2375 36.2402 10.0441 36.2051 9.84023L35.6965 6.87656L37.8492 4.77773C37.9078 4.72031 37.9465 4.64531 37.9582 4.56328C37.9898 4.3582 37.8469 4.16836 37.6418 4.13789Z" fill="#FAFF00"/>
<path d="M51.1418 4.13789L48.1664 3.70547L46.8363 1.00898C46.8 0.935154 46.7402 0.875389 46.6664 0.839061C46.4812 0.747654 46.2562 0.823826 46.1637 1.00898L44.8336 3.70547L41.8582 4.13789C41.7762 4.14961 41.7012 4.18828 41.6437 4.24687C41.5743 4.31822 41.5361 4.41422 41.5374 4.51376C41.5387 4.6133 41.5795 4.70824 41.6508 4.77773L43.8035 6.87656L43.2949 9.84023C43.283 9.90917 43.2906 9.98008 43.3169 10.0449C43.3433 10.1097 43.3872 10.1659 43.4438 10.207C43.5004 10.2481 43.5674 10.2725 43.6372 10.2775C43.707 10.2825 43.7768 10.2678 43.8387 10.2352L46.5 8.83593L49.1613 10.2352C49.234 10.2738 49.3184 10.2867 49.3992 10.2727C49.6031 10.2375 49.7402 10.0441 49.7051 9.84023L49.1965 6.87656L51.3492 4.77773C51.4078 4.72031 51.4465 4.64531 51.4582 4.56328C51.4898 4.3582 51.3469 4.16836 51.1418 4.13789V4.13789Z" fill="#FAFF00"/>
<path d="M64.6418 4.13789L61.6664 3.70547L60.3363 1.00898C60.3 0.935154 60.2402 0.875389 60.1664 0.839061C59.9812 0.747654 59.7562 0.823826 59.6637 1.00898L58.3336 3.70547L55.3582 4.13789C55.2762 4.14961 55.2012 4.18828 55.1437 4.24687C55.0743 4.31822 55.0361 4.41422 55.0374 4.51376C55.0387 4.6133 55.0795 4.70824 55.1508 4.77773L57.3035 6.87656L56.7949 9.84023C56.783 9.90917 56.7906 9.98008 56.8169 10.0449C56.8433 10.1097 56.8872 10.1659 56.9438 10.207C57.0004 10.2481 57.0674 10.2725 57.1372 10.2775C57.207 10.2825 57.2768 10.2678 57.3387 10.2352L60 8.83593L62.6613 10.2352C62.734 10.2738 62.8184 10.2867 62.8992 10.2727C63.1031 10.2375 63.2402 10.0441 63.2051 9.84023L62.6965 6.87656L64.8492 4.77773C64.9078 4.72031 64.9465 4.64531 64.9582 4.56328C64.9898 4.3582 64.8469 4.16836 64.6418 4.13789Z" fill="#8A8A8A"/>
</svg>
