<svg width="26" height="26" viewBox="0 0 26 26" fill="none" xmlns="http://www.w3.org/2000/svg">
<path d="M13 24.7867C12.4252 24.7837 11.8746 24.5457 11.4672 24.1241C11.0598 23.7025 10.8282 23.1311 10.8225 22.5333H15.1558C15.1581 22.8346 15.1029 23.1333 14.9933 23.4121C14.8532 23.7465 14.6387 24.0414 14.3675 24.2725C14.0963 24.5037 13.7761 24.6644 13.4333 24.7416H13.3824C13.2566 24.7689 13.1285 24.784 13 24.7867ZM21.6667 21.4067H4.33333V19.1533L6.5 18.0267V11.83C6.44293 10.2404 6.7881 8.66308 7.501 7.25573C7.85182 6.61045 8.33022 6.04987 8.90462 5.61096C9.47902 5.17205 10.1364 4.86479 10.8333 4.70946V2.25333H15.1667V4.70946C17.9606 5.40123 19.5 7.92947 19.5 11.83V18.0267L21.6667 19.1533V21.4067Z" fill="#8A8A8A"/>
</svg>
