<svg width="32" height="32" viewBox="0 0 32 32" fill="none" xmlns="http://www.w3.org/2000/svg">
<path d="M22.5 16.2857C22.9141 16.2857 23.2676 16.4531 23.5605 16.7879C23.8535 17.1228 24 17.5268 24 18C24 18.4732 23.8535 18.8772 23.5605 19.2121C23.2676 19.5469 22.9141 19.7143 22.5 19.7143H22.3242L20.9766 28.5804C20.9141 28.9911 20.7422 29.3304 20.4609 29.5982C20.1797 29.8661 19.8594 30 19.5 30H4.5C4.14062 30 3.82031 29.8661 3.53906 29.5982C3.25781 29.3304 3.08594 28.9911 3.02344 28.5804L1.67578 19.7143H1.5C1.08594 19.7143 0.732422 19.5469 0.439453 19.2121C0.146484 18.8772 0 18.4732 0 18C0 17.5268 0.146484 17.1228 0.439453 16.7879C0.732422 16.4531 1.08594 16.2857 1.5 16.2857H22.5ZM5.68359 27C5.88672 26.9821 6.05664 26.8817 6.19336 26.6987C6.33008 26.5156 6.39062 26.308 6.375 26.0759L6 20.5045C5.98438 20.2723 5.89648 20.0781 5.73633 19.9219C5.57617 19.7656 5.39453 19.6964 5.19141 19.7143C4.98828 19.7321 4.81836 19.8326 4.68164 20.0156C4.54492 20.1987 4.48438 20.4062 4.5 20.6384L4.875 26.2098C4.89062 26.433 4.9707 26.6205 5.11523 26.7723C5.25977 26.9241 5.42969 27 5.625 27H5.68359ZM10.5 26.1429V20.5714C10.5 20.3393 10.4258 20.1384 10.2773 19.9688C10.1289 19.7991 9.95312 19.7143 9.75 19.7143C9.54688 19.7143 9.37109 19.7991 9.22266 19.9688C9.07422 20.1384 9 20.3393 9 20.5714V26.1429C9 26.375 9.07422 26.5759 9.22266 26.7455C9.37109 26.9152 9.54688 27 9.75 27C9.95312 27 10.1289 26.9152 10.2773 26.7455C10.4258 26.5759 10.5 26.375 10.5 26.1429ZM15 26.1429V20.5714C15 20.3393 14.9258 20.1384 14.7773 19.9688C14.6289 19.7991 14.4531 19.7143 14.25 19.7143C14.0469 19.7143 13.8711 19.7991 13.7227 19.9688C13.5742 20.1384 13.5 20.3393 13.5 20.5714V26.1429C13.5 26.375 13.5742 26.5759 13.7227 26.7455C13.8711 26.9152 14.0469 27 14.25 27C14.4531 27 14.6289 26.9152 14.7773 26.7455C14.9258 26.5759 15 26.375 15 26.1429ZM19.125 26.2098L19.5 20.6384C19.5156 20.4062 19.4551 20.1987 19.3184 20.0156C19.1816 19.8326 19.0117 19.7321 18.8086 19.7143C18.6055 19.6964 18.4238 19.7656 18.2637 19.9219C18.1035 20.0781 18.0156 20.2723 18 20.5045L17.625 26.0759C17.6094 26.308 17.6699 26.5156 17.8066 26.6987C17.9434 26.8817 18.1133 26.9821 18.3164 27H18.375C18.5703 27 18.7402 26.9241 18.8848 26.7723C19.0293 26.6205 19.1094 26.433 19.125 26.2098ZM5.57812 9.91071L4.48828 15.4286H2.94141L4.125 9.52232C4.27344 8.73661 4.62109 8.09598 5.16797 7.60045C5.71484 7.10491 6.33984 6.85714 7.04297 6.85714H9C9 6.625 9.07422 6.42411 9.22266 6.25446C9.37109 6.08482 9.54688 6 9.75 6H14.25C14.4531 6 14.6289 6.08482 14.7773 6.25446C14.9258 6.42411 15 6.625 15 6.85714H16.957C17.6602 6.85714 18.2852 7.10491 18.832 7.60045C19.3789 8.09598 19.7266 8.73661 19.875 9.52232L21.0586 15.4286H19.5117L18.4219 9.91071C18.3359 9.51786 18.1582 9.19643 17.8887 8.94643C17.6191 8.69643 17.3086 8.57143 16.957 8.57143H15C15 8.80357 14.9258 9.00446 14.7773 9.17411C14.6289 9.34375 14.4531 9.42857 14.25 9.42857H9.75C9.54688 9.42857 9.37109 9.34375 9.22266 9.17411C9.07422 9.00446 9 8.80357 9 8.57143H7.04297C6.69141 8.57143 6.38086 8.69643 6.11133 8.94643C5.8418 9.19643 5.66406 9.51786 5.57812 9.91071Z" fill="#8A8A8A"/>
<rect x="18" width="14" height="15" rx="7" fill="white"/>
<path d="M27.8027 10.0625V11H23.0371V10.1943L25.3516 7.66992C25.6055 7.38346 25.8057 7.13607 25.9521 6.92773C26.0986 6.7194 26.2012 6.53223 26.2598 6.36621C26.3216 6.19694 26.3525 6.03255 26.3525 5.87305C26.3525 5.64844 26.3102 5.4515 26.2256 5.28223C26.1442 5.1097 26.0238 4.97461 25.8643 4.87695C25.7048 4.77604 25.5111 4.72559 25.2832 4.72559C25.0195 4.72559 24.7982 4.78255 24.6191 4.89648C24.4401 5.01042 24.305 5.16829 24.2139 5.37012C24.1227 5.56868 24.0771 5.79655 24.0771 6.05371H22.9004C22.9004 5.6403 22.9948 5.2627 23.1836 4.9209C23.3724 4.57585 23.6458 4.30241 24.0039 4.10059C24.362 3.89551 24.7933 3.79297 25.2979 3.79297C25.7731 3.79297 26.1768 3.87272 26.5088 4.03223C26.8408 4.19173 27.0931 4.41797 27.2656 4.71094C27.4414 5.00391 27.5293 5.35059 27.5293 5.75098C27.5293 5.97233 27.4935 6.19206 27.4219 6.41016C27.3503 6.62826 27.2477 6.84635 27.1143 7.06445C26.984 7.2793 26.8294 7.49577 26.6504 7.71387C26.4714 7.92871 26.2744 8.14681 26.0596 8.36816L24.5215 10.0625H27.8027Z" fill="#DA00FE"/>
</svg>
