<svg width="32" height="32" viewBox="0 0 32 32" fill="none" xmlns="http://www.w3.org/2000/svg">
<path d="M13.3333 21.3333V10.6667C13.3333 9.95942 13.6143 9.28115 14.1144 8.78105C14.6145 8.28095 15.2928 8 16 8H28V6.66667C28 5.2 26.8 4 25.3333 4H6.66667C5.95942 4 5.28115 4.28095 4.78105 4.78105C4.28095 5.28115 4 5.95942 4 6.66667V25.3333C4 26.0406 4.28095 26.7189 4.78105 27.219C5.28115 27.719 5.95942 28 6.66667 28H25.3333C26.8 28 28 26.8 28 25.3333V24H16C15.2928 24 14.6145 23.719 14.1144 23.219C13.6143 22.7189 13.3333 22.0406 13.3333 21.3333ZM17.3333 10.6667C16.6 10.6667 16 11.2667 16 12V20C16 20.7333 16.6 21.3333 17.3333 21.3333H29.3333V10.6667H17.3333ZM21.3333 18C20.2267 18 19.3333 17.1067 19.3333 16C19.3333 14.8933 20.2267 14 21.3333 14C22.44 14 23.3333 14.8933 23.3333 16C23.3333 17.1067 22.44 18 21.3333 18Z" fill="#8A8A8A"/>
</svg>
