<svg width="32" height="32" viewBox="0 0 32 32" fill="none" xmlns="http://www.w3.org/2000/svg">
<path d="M0 12C0 10.9391 0.421427 9.92172 1.17157 9.17157C1.92172 8.42143 2.93913 8 4 8H28C29.0609 8 30.0783 8.42143 30.8284 9.17157C31.5786 9.92172 32 10.9391 32 12V22C32 23.0609 31.5786 24.0783 30.8284 24.8284C30.0783 25.5786 29.0609 26 28 26H4C2.93913 26 1.92172 25.5786 1.17157 24.8284C0.421427 24.0783 0 23.0609 0 22V12ZM26 12.5V13.5C26 13.776 26.224 14 26.5 14H27.5C27.6326 14 27.7598 13.9473 27.8536 13.8536C27.9473 13.7598 28 13.6326 28 13.5V12.5C28 12.3674 27.9473 12.2402 27.8536 12.1464C27.7598 12.0527 27.6326 12 27.5 12H26.5C26.3674 12 26.2402 12.0527 26.1464 12.1464C26.0527 12.2402 26 12.3674 26 12.5ZM4.5 16C4.36739 16 4.24021 16.0527 4.14645 16.1464C4.05268 16.2402 4 16.3674 4 16.5V17.5C4 17.776 4.224 18 4.5 18H5.5C5.63261 18 5.75979 17.9473 5.85355 17.8536C5.94732 17.7598 6 17.6326 6 17.5V16.5C6 16.3674 5.94732 16.2402 5.85355 16.1464C5.75979 16.0527 5.63261 16 5.5 16H4.5ZM8 16.5V17.5C8 17.776 8.224 18 8.5 18H9.5C9.63261 18 9.75979 17.9473 9.85355 17.8536C9.94732 17.7598 10 17.6326 10 17.5V16.5C10 16.3674 9.94732 16.2402 9.85355 16.1464C9.75979 16.0527 9.63261 16 9.5 16H8.5C8.36739 16 8.24021 16.0527 8.14645 16.1464C8.05268 16.2402 8 16.3674 8 16.5ZM12.5 16C12.3674 16 12.2402 16.0527 12.1464 16.1464C12.0527 16.2402 12 16.3674 12 16.5V17.5C12 17.776 12.224 18 12.5 18H13.5C13.6326 18 13.7598 17.9473 13.8536 17.8536C13.9473 17.7598 14 17.6326 14 17.5V16.5C14 16.3674 13.9473 16.2402 13.8536 16.1464C13.7598 16.0527 13.6326 16 13.5 16H12.5ZM16 16.5V17.5C16 17.776 16.224 18 16.5 18H17.5C17.6326 18 17.7598 17.9473 17.8536 17.8536C17.9473 17.7598 18 17.6326 18 17.5V16.5C18 16.3674 17.9473 16.2402 17.8536 16.1464C17.7598 16.0527 17.6326 16 17.5 16H16.5C16.3674 16 16.2402 16.0527 16.1464 16.1464C16.0527 16.2402 16 16.3674 16 16.5ZM26.5 16C26.3674 16 26.2402 16.0527 26.1464 16.1464C26.0527 16.2402 26 16.3674 26 16.5V17.5C26 17.776 26.224 18 26.5 18H27.5C27.6326 18 27.7598 17.9473 27.8536 17.8536C27.9473 17.7598 28 17.6326 28 17.5V16.5C28 16.3674 27.9473 16.2402 27.8536 16.1464C27.7598 16.0527 27.6326 16 27.5 16H26.5ZM26.5 20C26.3674 20 26.2402 20.0527 26.1464 20.1464C26.0527 20.2402 26 20.3674 26 20.5V21.5C26 21.776 26.224 22 26.5 22H27.5C27.6326 22 27.7598 21.9473 27.8536 21.8536C27.9473 21.7598 28 21.6326 28 21.5V20.5C28 20.3674 27.9473 20.2402 27.8536 20.1464C27.7598 20.0527 27.6326 20 27.5 20H26.5ZM20.5 16C20.3674 16 20.2402 16.0527 20.1464 16.1464C20.0527 16.2402 20 16.3674 20 16.5V17.5C20 17.776 20.224 18 20.5 18H23.5C23.6326 18 23.7598 17.9473 23.8536 17.8536C23.9473 17.7598 24 17.6326 24 17.5V16.5C24 16.3674 23.9473 16.2402 23.8536 16.1464C23.7598 16.0527 23.6326 16 23.5 16H20.5ZM22 20.5V21.5C22 21.776 22.224 22 22.5 22H23.5C23.6326 22 23.7598 21.9473 23.8536 21.8536C23.9473 21.7598 24 21.6326 24 21.5V20.5C24 20.3674 23.9473 20.2402 23.8536 20.1464C23.7598 20.0527 23.6326 20 23.5 20H22.5C22.3674 20 22.2402 20.0527 22.1464 20.1464C22.0527 20.2402 22 20.3674 22 20.5ZM22.5 12C22.3674 12 22.2402 12.0527 22.1464 12.1464C22.0527 12.2402 22 12.3674 22 12.5V13.5C22 13.776 22.224 14 22.5 14H23.5C23.6326 14 23.7598 13.9473 23.8536 13.8536C23.9473 13.7598 24 13.6326 24 13.5V12.5C24 12.3674 23.9473 12.2402 23.8536 12.1464C23.7598 12.0527 23.6326 12 23.5 12H22.5ZM18 12.5V13.5C18 13.776 18.224 14 18.5 14H19.5C19.6326 14 19.7598 13.9473 19.8536 13.8536C19.9473 13.7598 20 13.6326 20 13.5V12.5C20 12.3674 19.9473 12.2402 19.8536 12.1464C19.7598 12.0527 19.6326 12 19.5 12H18.5C18.3674 12 18.2402 12.0527 18.1464 12.1464C18.0527 12.2402 18 12.3674 18 12.5ZM14.5 12C14.3674 12 14.2402 12.0527 14.1464 12.1464C14.0527 12.2402 14 12.3674 14 12.5V13.5C14 13.776 14.224 14 14.5 14H15.5C15.6326 14 15.7598 13.9473 15.8536 13.8536C15.9473 13.7598 16 13.6326 16 13.5V12.5C16 12.3674 15.9473 12.2402 15.8536 12.1464C15.7598 12.0527 15.6326 12 15.5 12H14.5ZM10 12.5V13.5C10 13.776 10.224 14 10.5 14H11.5C11.6326 14 11.7598 13.9473 11.8536 13.8536C11.9473 13.7598 12 13.6326 12 13.5V12.5C12 12.3674 11.9473 12.2402 11.8536 12.1464C11.7598 12.0527 11.6326 12 11.5 12H10.5C10.3674 12 10.2402 12.0527 10.1464 12.1464C10.0527 12.2402 10 12.3674 10 12.5ZM4.5 12C4.36739 12 4.24021 12.0527 4.14645 12.1464C4.05268 12.2402 4 12.3674 4 12.5V13.5C4 13.776 4.224 14 4.5 14H7.5C7.63261 14 7.75979 13.9473 7.85355 13.8536C7.94732 13.7598 8 13.6326 8 13.5V12.5C8 12.3674 7.94732 12.2402 7.85355 12.1464C7.75979 12.0527 7.63261 12 7.5 12H4.5ZM4 20.5V21.5C4 21.776 4.224 22 4.5 22H5.5C5.63261 22 5.75979 21.9473 5.85355 21.8536C5.94732 21.7598 6 21.6326 6 21.5V20.5C6 20.3674 5.94732 20.2402 5.85355 20.1464C5.75979 20.0527 5.63261 20 5.5 20H4.5C4.36739 20 4.24021 20.0527 4.14645 20.1464C4.05268 20.2402 4 20.3674 4 20.5ZM8.5 20C8.36739 20 8.24021 20.0527 8.14645 20.1464C8.05268 20.2402 8 20.3674 8 20.5V21.5C8 21.776 8.224 22 8.5 22H19.5C19.6326 22 19.7598 21.9473 19.8536 21.8536C19.9473 21.7598 20 21.6326 20 21.5V20.5C20 20.3674 19.9473 20.2402 19.8536 20.1464C19.7598 20.0527 19.6326 20 19.5 20H8.5Z" fill="#8A8A8A"/>
</svg>
