<svg width="32" height="32" viewBox="0 0 32 32" fill="none" xmlns="http://www.w3.org/2000/svg">
<path fill-rule="evenodd" clip-rule="evenodd" d="M16 30.4C8.0472 30.4 1.6 23.9528 1.6 16C1.6 8.0472 8.0472 1.6 16 1.6C23.9528 1.6 30.4 8.0472 30.4 16C30.4 23.9528 23.9528 30.4 16 30.4ZM16 32C7.1632 32 0 24.8368 0 16C0 7.1632 7.1632 0 16 0C24.8368 0 32 7.1632 32 16C32 24.8368 24.8368 32 16 32Z" fill="#8A8A8A"/>
<path d="M25.6 25.304C25.6 24.4776 24.9824 23.7792 24.16 23.688C17.988 23.0048 13.984 23.0664 7.82558 23.7032C7.51805 23.7355 7.22658 23.8566 6.98677 24.0518C6.74697 24.2471 6.5692 24.5079 6.47519 24.8025C6.38118 25.0971 6.375 25.4126 6.4574 25.7107C6.53979 26.0087 6.7072 26.2763 6.93917 26.4808C14.2072 32.816 18.3608 32.7288 25.088 26.4872C25.416 26.1832 25.6 25.7512 25.6 25.3048V25.304Z" fill="#8A8A8A"/>
<path fill-rule="evenodd" clip-rule="evenodd" d="M7.90802 24.4984C14.0176 23.8664 17.964 23.8072 24.0728 24.4832C24.2739 24.5066 24.4593 24.6034 24.5935 24.755C24.7276 24.9066 24.8012 25.1023 24.8 25.3048C24.8 25.5336 24.7048 25.7504 24.544 25.9008C21.2096 28.9936 18.6832 30.3912 16.2136 30.4C13.7352 30.4088 11.0728 29.0224 7.46482 25.8784C7.3502 25.7763 7.26768 25.6432 7.2273 25.4952C7.18692 25.3471 7.19041 25.1906 7.23736 25.0445C7.28431 24.8984 7.37268 24.7691 7.49174 24.6723C7.6108 24.5755 7.75542 24.5153 7.90802 24.4992V24.4984ZM24.248 22.8928C18.0112 22.2024 13.9488 22.2648 7.74242 22.9072C7.27978 22.9555 6.84125 23.1376 6.48053 23.4313C6.11981 23.725 5.85254 24.1174 5.71144 24.5607C5.57035 25.0039 5.56155 25.4787 5.68612 25.9268C5.81069 26.375 6.06323 26.7771 6.41282 27.084C10.0728 30.2744 13.1208 32.012 16.2184 32C19.3248 31.9888 22.2384 30.2216 25.6312 27.0736C25.8741 26.8473 26.0678 26.5734 26.2001 26.2689C26.3323 25.9644 26.4004 25.6359 26.4 25.304C26.4012 24.7075 26.1823 24.1316 25.7852 23.6865C25.3881 23.2415 24.8408 22.9586 24.248 22.892V22.8928Z" fill="#8A8A8A"/>
<path d="M9.60002 12.8C9.60002 14.4974 10.2743 16.1252 11.4745 17.3255C12.6748 18.5257 14.3026 19.2 16 19.2C17.6974 19.2 19.3253 18.5257 20.5255 17.3255C21.7257 16.1252 22.4 14.4974 22.4 12.8C22.4 11.1026 21.7257 9.47473 20.5255 8.2745C19.3253 7.07426 17.6974 6.39998 16 6.39998C14.3026 6.39998 12.6748 7.07426 11.4745 8.2745C10.2743 9.47473 9.60002 11.1026 9.60002 12.8Z" fill="#8A8A8A"/>
<path fill-rule="evenodd" clip-rule="evenodd" d="M16 17.6C14.727 17.6 13.5061 17.0943 12.6059 16.1941C11.7057 15.2939 11.2 14.073 11.2 12.8C11.2 11.5269 11.7057 10.306 12.6059 9.40587C13.5061 8.50569 14.727 7.99998 16 7.99998C17.2731 7.99998 18.494 8.50569 19.3941 9.40587C20.2943 10.306 20.8 11.5269 20.8 12.8C20.8 14.073 20.2943 15.2939 19.3941 16.1941C18.494 17.0943 17.2731 17.6 16 17.6ZM16 19.2C14.3026 19.2 12.6748 18.5257 11.4745 17.3255C10.2743 16.1252 9.60002 14.4974 9.60002 12.8C9.60002 11.1026 10.2743 9.47473 11.4745 8.2745C12.6748 7.07426 14.3026 6.39998 16 6.39998C17.6974 6.39998 19.3253 7.07426 20.5255 8.2745C21.7257 9.47473 22.4 11.1026 22.4 12.8C22.4 14.4974 21.7257 16.1252 20.5255 17.3255C19.3253 18.5257 17.6974 19.2 16 19.2Z" fill="#8A8A8A"/>
</svg>
